<?xml version="1.0" standalone="no"?>
<!DOCTYPE svg PUBLIC "-//W3C//DTD SVG 20010904//EN"
 "http://www.w3.org/TR/2001/REC-SVG-20010904/DTD/svg10.dtd">
<svg version="1.0" xmlns="http://www.w3.org/2000/svg"
 width="820.000000pt" height="820.000000pt" viewBox="0 0 820.000000 820.000000"
 preserveAspectRatio="xMidYMid meet">
<metadata>
Created by potrace 1.11, written by Peter Selinger 2001-2013
</metadata>
<g transform="translate(0.000000,820.000000) scale(0.100000,-0.100000)"
fill="#000000" stroke="none">
<path d="M3870 8189 c-25 -4 -63 -10 -85 -14 -194 -31 -433 -134 -614 -263
-97 -69 -236 -198 -308 -287 -172 -212 -296 -501 -331 -775 -12 -90 -7 -379 7
-455 67 -357 225 -649 479 -885 245 -228 581 -379 902 -405 82 -7 283 -8 315
-1 11 2 43 7 70 10 146 19 306 71 466 151 334 167 607 463 740 803 62 159 91
282 106 442 36 400 -84 800 -334 1110 -60 74 -148 164 -203 209 -25 20 -51 42
-59 49 -37 35 -168 115 -271 165 -117 57 -262 107 -367 127 -32 5 -69 13 -83
16 -39 10 -380 12 -430 3z"/>
<path d="M3728 4815 c-2 -2 -45 -6 -96 -9 -52 -4 -108 -8 -125 -11 -18 -2 -68
-9 -112 -15 -171 -22 -366 -66 -605 -135 -80 -23 -290 -106 -405 -161 -149
-70 -371 -211 -500 -317 -106 -86 -266 -254 -351 -367 -89 -117 -204 -321
-252 -445 -10 -28 -23 -59 -27 -70 -5 -11 -9 -22 -10 -25 0 -3 -11 -35 -23
-71 -12 -36 -24 -76 -27 -89 -2 -12 -9 -37 -14 -54 -6 -17 -12 -42 -15 -56 -2
-14 -11 -59 -19 -100 -32 -154 -42 -284 -42 -540 0 -201 7 -369 19 -440 3 -14
7 -51 11 -83 3 -32 13 -95 21 -140 8 -45 17 -98 20 -117 23 -170 186 -770 209
-770 8 0 676 219 682 224 0 0 -9 33 -22 71 -22 66 -72 233 -80 265 -2 8 -17
76 -33 150 -30 134 -36 169 -47 245 -4 22 -8 49 -10 60 -1 11 -6 56 -10 100
-4 44 -9 91 -11 105 -11 62 -3 389 11 500 12 92 17 117 41 215 118 476 410
807 867 981 78 30 195 65 262 79 11 3 31 7 45 10 47 10 75 15 120 21 25 3 53
8 64 10 24 4 136 15 199 19 26 1 50 4 52 7 3 3 -24 42 -60 87 -36 46 -65 87
-65 92 0 5 85 180 189 388 161 324 186 380 170 384 -10 3 -19 3 -21 2z"/>
<path d="M4032 4742 c-17 -37 -54 -107 -80 -157 -27 -49 -79 -148 -117 -220
-37 -71 -83 -159 -102 -194 -19 -35 -32 -69 -29 -76 2 -7 30 -53 62 -102 31
-48 73 -113 92 -143 20 -30 53 -82 75 -115 22 -33 40 -64 40 -70 0 -10 -10
-98 -18 -160 -2 -16 -9 -73 -15 -125 -6 -52 -13 -107 -16 -122 -2 -15 -6 -47
-9 -70 -5 -51 -43 -377 -50 -430 -11 -85 -15 -119 -30 -243 -9 -71 -18 -150
-21 -175 -3 -25 -9 -79 -14 -120 -5 -41 -12 -97 -15 -125 -3 -27 -8 -66 -11
-85 -2 -19 -7 -57 -9 -85 -3 -27 -7 -57 -9 -65 -3 -8 -7 -46 -11 -83 -3 -37
-8 -76 -10 -85 -1 -9 -6 -48 -10 -85 -3 -37 -8 -76 -10 -86 -2 -10 -6 -44 -9
-77 -8 -77 -16 -143 -22 -174 -2 -14 -6 -52 -9 -85 -3 -33 -8 -71 -10 -85 -2
-14 -7 -50 -10 -80 -3 -30 -8 -66 -10 -80 -2 -14 -6 -50 -10 -80 -9 -85 -15
-132 -21 -170 -4 -31 3 -46 66 -133 38 -53 70 -101 70 -106 0 -5 4 -11 8 -13
5 -1 46 -57 93 -123 46 -66 86 -122 89 -125 3 -3 32 -44 64 -93 33 -48 63 -87
67 -87 6 0 72 84 241 305 4 6 18 24 31 40 13 17 72 93 131 169 l107 139 -6 61
c-4 34 -8 72 -10 86 -2 14 -6 50 -10 80 -3 30 -8 66 -10 80 -2 14 -7 54 -10
90 -4 36 -8 76 -10 90 -2 14 -7 54 -10 90 -3 36 -8 76 -10 90 -2 14 -7 50 -10
80 -4 30 -8 71 -11 90 -2 19 -6 63 -9 97 -3 34 -7 70 -9 80 -2 10 -7 47 -10
83 -4 36 -9 76 -11 90 -2 14 -7 50 -10 80 -7 69 -25 225 -30 265 -2 17 -7 57
-10 90 -3 33 -10 96 -16 140 -14 112 -17 142 -24 205 -6 57 -10 89 -20 175 -3
28 -7 66 -9 85 -9 74 -17 146 -21 180 -3 19 -12 98 -20 175 -23 209 -25 224
-35 303 -16 123 -20 113 116 307 69 99 128 185 131 192 4 10 -41 95 -198 370
-13 22 -69 120 -124 217 -55 97 -102 176 -105 176 -3 0 -20 -31 -38 -68z"/>
<path d="M4498 4674 c38 -77 124 -250 192 -386 l122 -248 -43 -57 c-23 -32
-54 -70 -68 -85 -13 -15 -22 -31 -18 -34 3 -3 30 -8 59 -10 59 -4 140 -12 208
-20 177 -21 444 -98 596 -170 464 -220 732 -625 791 -1194 15 -143 8 -523 -11
-627 -2 -10 -7 -43 -12 -73 -4 -30 -8 -57 -9 -60 0 -3 -5 -27 -9 -55 -4 -27
-21 -108 -38 -180 -16 -71 -31 -137 -33 -145 -3 -12 -71 -229 -91 -290 -4 -13
64 -39 340 -131 l345 -116 20 61 c46 145 129 448 145 536 2 14 14 68 24 120
11 52 23 113 26 135 4 22 11 65 16 95 5 30 11 78 14 105 3 28 11 91 17 140 13
104 19 551 8 634 -4 31 -10 81 -13 112 -3 31 -11 80 -16 110 -6 30 -13 65 -15
79 -16 84 -41 179 -77 290 -33 103 -37 113 -97 243 -158 345 -446 664 -806
892 -230 145 -578 289 -880 362 -104 25 -270 59 -330 67 -22 3 -71 10 -110 15
-38 6 -125 13 -193 17 l-123 6 69 -138z"/>
</g>
</svg>
